#!OML:ASF Y:\EmotionMaleHayes\Project 1\Capture day 1\Session 1\Male1.ASF
:FULLY-SPECIFIED
:DEGREES
941
root 34.8906 16.5578 16.0561 573.505 68.762 578.86
lowerback 7.74707 5.50225 9.36855
upperback 1.92221 8.1889 1.14334
thorax -1.17811 4.13687 -4.6299
lowerneck -20.8702 -4.44662 -2.91788
upperneck 16.788 -5.174 0.023843
head 8.75151 -2.61113 -0.214276
rclavicle 1.07344e-014 -2.94201e-014
rhumerus -9.75518 10.9231 -78.7592
rradius 44.3127
rwrist -2.76708
rhand -12.633 -34.5484
rfingers 7.12502
rthumb 13.4469 -64.0944
lclavicle 1.07344e-014 -2.94201e-014
lhumerus -51.7191 7.47169 73.7007
lradius 25.082
lwrist -11.5216
lhand -14.5024 -22.1874
lfingers 7.12502
lthumb 11.6447 7.469
rfemur 20.3262 -7.1325 31.1679
rtibia 6.20198
rfoot -21.3904 -1.49815
rtoes 7.99754
lfemur -22.6756 17.505 -4.15824
ltibia 12.0913
lfoot -9.04628 24.757
ltoes 15.7223
942
root 35.0213 16.5392 15.9944 573.932 68.8419 578.98
lowerback 7.26438 5.69429 9.39336
upperback 1.85138 8.38792 1.06697
thorax -0.94053 4.24319 -4.67394
lowerneck -21.2592 -4.65692 -3.69736
upperneck 17.0524 -5.33365 0.599802
head 8.95289 -2.67031 0.0714504
rclavicle 4.70126e-014 9.54166e-015
rhumerus -9.65719 11.3182 -79.044
rradius 44.7821
rwrist -2.89325
rhand -12.8224 -34.5079
rfingers 7.12502
rthumb 13.2644 -64.0659
lclavicle 4.70126e-014 9.54166e-015
lhumerus -52.0496 6.42983 74.7697
lradius 25.8316
lwrist -10.0824
lhand -13.7541 -22.4634
lfingers 7.12502
lthumb 12.3662 7.15083
rfemur 20.4185 -6.84354 31.1605
rtibia 6.42566
rfoot -21.7525 -1.58255
rtoes 7.71895
lfemur -22.7117 19.1414 -4.65617
ltibia 11.173
lfoot -7.78944 25.1848
ltoes 11.6226
943
root 35.1488 16.527 15.9464 574.592 68.786 579.825
lowerback 7.44926 5.83386 9.64002
upperback 1.80279 8.61635 1.05616
thorax -1.02223 4.35208 -4.85022
lowerneck -21.1609 -4.76238 -3.58384
upperneck 16.8998 -5.5139 0.580829
head 8.88261 -2.75067 0.0257425
rclavicle -5.82439e-014 -2.54444e-014
rhumerus -9.73979 11.2409 -79.527
rradius 45.3319
rwrist -3.05578
rhand -12.7298 -34.0672
rfingers 7.12502
rthumb 13.3537 -63.6193
lclavicle -5.82439e-014 -2.54444e-014
lhumerus -52.243 6.12969 75.0762
lradius 26.0222
lwrist -9.91122
lhand -13.2482 -22.739
lfingers 7.12502
lthumb 12.854 6.84525
rfemur 20.9351 -6.24259 31.6704
rtibia 6.58435
rfoot -22.0372 -2.19176
rtoes 6.64094
lfemur -21.9897 20.0352 -4.26118
ltibia 10.0867
lfoot -7.41851 25.9203
ltoes 11.4316
944
root 35.2732 16.5181 15.8779 573.452 69.0567 578.319
lowerback 7.22297 5.93945 9.16267
upperback 1.61826 8.68296 0.715679
thorax -1.09642 4.37053 -4.93281
lowerneck -21.0428 -4.8607 -3.6439
upperneck 16.9025 -5.67852 0.775656
head 8.87439 -2.81053 0.0811991
rclavicle 3.89618e-014 -2.38542e-014
rhumerus -9.8338 11.2734 -80.1048
rradius 45.7794
rwrist -3.2093
rhand -12.5618 -33.5249
rfingers 7.12502
rthumb 13.5155 -63.0663
lclavicle 3.89618e-014 -2.38542e-014
lhumerus -52.41 6.07262 75.06
lradius 25.9505
lwrist -9.97689
lhand -12.8872 -22.4745
lfingers 7.12502
lthumb 13.202 7.08746
rfemur 21.1504 -6.00189 30.8988
rtibia 6.70576
rfoot -22.2234 -2.30582
rtoes 5.48584
lfemur -21.376 19.562 -5.06948
ltibia 8.53129
lfoot -8.54933 27.2569
ltoes 15.7517
945
root 35.4039 16.5071 15.8118 573.458 69.1652 578.136
lowerback 6.93235 6.0139 9.02486
upperback 1.50885 8.7368 0.585024
thorax -1.04137 4.39415 -4.96568
lowerneck -21.1389 -4.83455 -3.88954
upperneck 17.0749 -5.61749 1.01992
head 8.96484 -2.76921 0.2077
rclavicle 6.55989e-015 -4.77083e-015
rhumerus -9.79891 11.7868 -80.5908
rradius 46.2125
rwrist -3.51097
rhand -12.3451 -33.2966
rfingers 7.12502
rthumb 13.7244 -62.824
lclavicle 6.55989e-015 -4.77083e-015
lhumerus -52.6626 6.04991 75.1467
lradius 26.1492
lwrist -9.8183
lhand -12.3363 -22.0072
lfingers 7.12502
lthumb 13.7329 7.51966
rfemur 21.6193 -4.86493 31.2949
rtibia 6.4599
rfoot -22.2962 -3.20412
rtoes 5.17182
lfemur -20.6669 19.3047 -5.13958
ltibia 7.33924
lfoot -9.67808 28.4059
ltoes 19.6804
946
root 35.5305 16.4953 15.7487 573.634 69.2468 578.352
lowerback 6.84782 6.06152 8.95655
upperback 1.49979 8.78515 0.56073
thorax -1.00313 4.41946 -4.94512
lowerneck -20.9132 -4.76179 -3.37162
upperneck 16.8279 -5.57773 0.531194
head 8.80794 -2.77383 -0.0271194
rclavicle -1.14798e-013 1.59028e-015
rhumerus -9.74086 12.739 -80.9267
rradius 46.705
rwrist -4.0212
rhand -12.0831 -33.3722
rfingers 7.12502
rthumb 13.9769 -62.8823
lclavicle -1.14798e-013 1.59028e-015
lhumerus -52.878 5.97637 75.3888
lradius 26.3923
lwrist -9.62949
lhand -11.8801 -22.2178
lfingers 7.12502
lthumb 14.1725 7.27876
rfemur 21.9011 -4.17634 31.5056
rtibia 6.98922
rfoot -22.5608 -3.62877
rtoes 3.70457
lfemur -19.9283 19.4775 -5.02658
ltibia 6.71366
lfoot -10.0838 29.2483
ltoes 22.538
947
root 35.676 16.4763 15.661 572.748 69.1711 577.327
lowerback 6.38131 6.06779 8.85235
upperback 1.48511 8.73033 0.407021
thorax -0.758681 4.40187 -4.98563
lowerneck -20.7651 -4.79012 -3.11386
upperneck 16.7197 -5.65044 0.301404
head 8.73098 -2.81803 -0.150961
rclavicle 3.70733e-014 -1.35174e-014
rhumerus -9.85971 13.4251 -81.2978
rradius 47.1411
rwrist -4.12993
rhand -11.6849 -33.3035
rfingers 7.12502
rthumb 14.3606 -62.7868
lclavicle 3.70733e-014 -1.35174e-014
lhumerus -52.9717 6.0392 75.477
lradius 26.3908
lwrist -9.97892
lhand -11.7291 -22.8263
lfingers 7.12502
lthumb 14.318 6.65996
rfemur 22.4367 -4.84663 30.5568
rtibia 7.14153
rfoot -22.5687 -2.84672
rtoes 1.15254
lfemur -19.2762 19.5499 -5.66223
ltibia 6.13634
lfoot -9.49397 29.6929
ltoes 24.5408
